<svg width="82" height="42" viewBox="0 0 82 42" fill="none" xmlns="http://www.w3.org/2000/svg">
<path d="M9.09 14.85H3.62V3.36H9.07C9.07 3.36 14.83 3.1 14.83 8.79C14.83 14.35 9.54 14.85 9.09 14.85ZM11.65 17.01C11.65 17.01 18.67 15.63 18.67 8.35C18.67 1.06 11.9 0 9.81 0H0V31.68H3.62V18.05H6.6C8.28 18.05 9.95 18.32 12.27 22.09L17.85 31.67H22.17L15.36 20.51C15.36 20.51 13.72 17.66 11.65 17.01Z" fill="#BC2228"/>
<path d="M28.09 3.36V0H24.45V3.32" fill="#919191"/>
<path d="M24.45 4.55V31.81H28.09V4.58" fill="#919191"/>
<path d="M71.54 4.55H67.91V31.77H71.54V4.55Z" fill="#919191"/>
<path d="M65.68 4.5H50.56V8.19H65.68V4.5Z" fill="#919191"/>
<path d="M65.68 28.11H50.56V31.8H65.68V28.11Z" fill="#919191"/>
<path d="M60.76 16.52H50.56V20.22H60.76V16.52Z" fill="#919191"/>
<path d="M41.72 4.55H38.06L27.97 18.16L38.06 31.77H41.72L31.65 18.16L41.72 4.55Z" fill="#919191"/>
<path d="M44.76 4.55L34.81 18.16L44.76 31.77H48.39L38.43 18.16L48.39 4.55H44.76Z" fill="#BC2228"/>
<path d="M0.409999 40.17L0.0499992 36.78H0.629999L0.779999 38.3L0.849999 39.16C0.849999 39.22 0.859999 39.35 0.869999 39.55C0.939999 39.33 0.979999 39.17 1.04 39.05C1.08 38.93 1.15 38.77 1.25 38.55L2.07 36.78H2.71L2.82 38.48C2.84 38.74 2.85 39.08 2.85 39.51C2.96 39.22 3.14 38.83 3.39 38.32L4.13 36.78H4.72L3.03 40.17H2.41L2.29 38.18C2.28 38.06 2.27 37.82 2.27 37.46C2.18 37.69 2.08 37.93 1.95 38.2L1.03 40.18H0.409999V40.17Z" fill="#919191"/>
<path d="M4.59 40.17L5.58 35.49H6.18L5.8 37.29C6.03 37.08 6.23 36.93 6.41 36.84C6.6 36.74 6.8 36.7 6.99 36.7C7.28 36.7 7.51 36.77 7.67 36.92C7.83 37.07 7.91 37.26 7.91 37.51C7.91 37.63 7.88 37.85 7.81 38.17L7.38 40.17H6.78L7.22 38.11C7.29 37.81 7.32 37.63 7.32 37.55C7.32 37.44 7.27 37.35 7.2 37.28C7.12 37.21 7 37.18 6.86 37.18C6.65 37.18 6.44 37.24 6.25 37.34C6.06 37.45 5.9 37.6 5.8 37.79C5.69 37.98 5.59 38.29 5.5 38.71L5.18 40.17H4.59Z" fill="#919191"/>
<path d="M9.15 38.17H11.09C11.1 38.11 11.1 38.07 11.1 38.04C11.1 37.75 11.02 37.53 10.87 37.37C10.72 37.22 10.53 37.14 10.3 37.14C10.05 37.14 9.83 37.23 9.61 37.4C9.4 37.57 9.25 37.83 9.15 38.17ZM10.86 39.01L11.44 39.07C11.36 39.35 11.17 39.61 10.86 39.87C10.57 40.12 10.22 40.25 9.8 40.25C9.54 40.25 9.3 40.19 9.09 40.08C8.88 39.97 8.72 39.8 8.6 39.57C8.49 39.35 8.43 39.09 8.43 38.81C8.43 38.44 8.52 38.08 8.69 37.73C8.87 37.38 9.1 37.12 9.38 36.95C9.65 36.78 9.95 36.7 10.28 36.7C10.7 36.7 11.02 36.83 11.27 37.08C11.52 37.33 11.64 37.67 11.64 38.11C11.64 38.28 11.63 38.45 11.6 38.62H9.05C9.04 38.69 9.04 38.75 9.04 38.8C9.04 39.12 9.11 39.36 9.27 39.53C9.42 39.7 9.6 39.78 9.81 39.78C10.01 39.78 10.22 39.71 10.41 39.58C10.6 39.45 10.75 39.26 10.86 39.01Z" fill="#919191"/>
<path d="M12.04 40.17L12.77 36.78H13.29L13.14 37.47C13.32 37.21 13.49 37.01 13.67 36.89C13.84 36.76 14.01 36.7 14.19 36.7C14.31 36.7 14.45 36.74 14.63 36.82L14.38 37.36C14.28 37.29 14.17 37.25 14.04 37.25C13.84 37.25 13.62 37.36 13.41 37.59C13.2 37.82 13.01 38.22 12.89 38.81L12.6 40.17H12.04Z" fill="#919191"/>
<path d="M15.1 38.17H17.04C17.05 38.11 17.05 38.07 17.05 38.04C17.05 37.75 16.97 37.53 16.82 37.37C16.67 37.22 16.48 37.14 16.24 37.14C15.99 37.14 15.77 37.23 15.55 37.4C15.36 37.57 15.2 37.83 15.1 38.17ZM16.82 39.01L17.4 39.07C17.32 39.35 17.13 39.61 16.82 39.87C16.53 40.12 16.18 40.25 15.76 40.25C15.5 40.25 15.26 40.19 15.05 40.08C14.84 39.97 14.68 39.8 14.57 39.57C14.46 39.35 14.4 39.09 14.4 38.81C14.4 38.44 14.49 38.08 14.66 37.73C14.84 37.38 15.07 37.12 15.35 36.95C15.62 36.78 15.92 36.7 16.25 36.7C16.67 36.7 16.99 36.83 17.24 37.08C17.49 37.33 17.61 37.67 17.61 38.11C17.61 38.28 17.6 38.45 17.57 38.62H15C14.99 38.69 14.99 38.75 14.99 38.8C14.99 39.12 15.06 39.36 15.22 39.53C15.37 39.7 15.55 39.78 15.76 39.78C15.96 39.78 16.17 39.71 16.36 39.58C16.56 39.45 16.7 39.26 16.82 39.01Z" fill="#919191"/>
<path d="M21.24 39.7L21.14 40.17C21 40.21 20.86 40.22 20.73 40.22C20.49 40.22 20.3 40.16 20.17 40.05C20.07 39.97 20.01 39.85 20.01 39.7C20.01 39.63 20.03 39.45 20.09 39.18L20.52 37.21H20.05L20.15 36.76H20.61L20.79 35.93L21.47 35.53L21.21 36.76H21.78L21.69 37.21H21.1L20.7 39.08C20.64 39.32 20.62 39.46 20.62 39.51C20.62 39.58 20.64 39.63 20.68 39.67C20.73 39.71 20.79 39.72 20.88 39.72C21.03 39.74 21.14 39.72 21.24 39.7Z" fill="#919191"/>
<path d="M21.71 40.17L22.71 35.49H23.31L22.93 37.29C23.14 37.08 23.35 36.93 23.54 36.84C23.73 36.75 23.92 36.7 24.13 36.7C24.42 36.7 24.64 36.77 24.81 36.92C24.97 37.07 25.05 37.26 25.05 37.51C25.05 37.63 25.02 37.85 24.94 38.17L24.51 40.17H23.92L24.36 38.11C24.43 37.81 24.45 37.63 24.45 37.55C24.45 37.44 24.42 37.35 24.34 37.28C24.26 37.21 24.15 37.17 24 37.17C23.79 37.17 23.58 37.23 23.39 37.33C23.19 37.44 23.04 37.59 22.93 37.78C22.83 37.97 22.73 38.28 22.63 38.7L22.33 40.16H21.71V40.17Z" fill="#919191"/>
<path d="M26.27 38.17H28.22C28.22 38.11 28.23 38.07 28.23 38.04C28.23 37.75 28.15 37.53 28 37.37C27.85 37.22 27.66 37.14 27.42 37.14C27.17 37.14 26.93 37.23 26.73 37.4C26.53 37.57 26.37 37.83 26.27 38.17ZM28 39.01L28.57 39.07C28.48 39.35 28.3 39.61 28 39.87C27.71 40.12 27.35 40.25 26.94 40.25C26.68 40.25 26.44 40.19 26.23 40.08C26.02 39.97 25.85 39.8 25.73 39.57C25.62 39.35 25.57 39.09 25.57 38.81C25.57 38.44 25.65 38.08 25.83 37.73C26.01 37.38 26.24 37.12 26.51 36.95C26.79 36.78 27.1 36.7 27.42 36.7C27.83 36.7 28.16 36.83 28.41 37.08C28.66 37.33 28.78 37.67 28.78 38.11C28.78 38.28 28.76 38.45 28.74 38.62H26.18C26.17 38.69 26.17 38.75 26.17 38.8C26.17 39.12 26.24 39.36 26.38 39.53C26.54 39.7 26.72 39.78 26.93 39.78C27.13 39.78 27.34 39.71 27.53 39.58C27.74 39.45 27.88 39.26 28 39.01Z" fill="#919191"/>
<path d="M31.75 38.75C31.75 38.99 31.77 39.17 31.82 39.31C31.87 39.45 31.96 39.56 32.07 39.65C32.18 39.74 32.32 39.79 32.49 39.79C32.75 39.79 33 39.65 33.21 39.38C33.5 39.02 33.65 38.57 33.65 38.04C33.65 37.77 33.58 37.56 33.44 37.41C33.29 37.26 33.11 37.18 32.9 37.18C32.75 37.18 32.63 37.21 32.52 37.27C32.4 37.33 32.28 37.44 32.17 37.58C32.06 37.73 31.96 37.92 31.88 38.14C31.79 38.37 31.75 38.57 31.75 38.75ZM33.38 39.68C33.04 40.06 32.68 40.25 32.32 40.25C31.99 40.25 31.71 40.13 31.5 39.89C31.27 39.65 31.17 39.31 31.17 38.86C31.17 38.45 31.25 38.07 31.43 37.73C31.6 37.39 31.81 37.13 32.07 36.96C32.33 36.79 32.6 36.7 32.86 36.7C33.29 36.7 33.62 36.9 33.84 37.31L34.22 35.49H34.82L33.82 40.17H33.27L33.38 39.68Z" fill="#919191"/>
<path d="M34.75 40.17L35.48 36.78H36L35.85 37.47C36.03 37.21 36.2 37.01 36.38 36.89C36.55 36.76 36.72 36.7 36.9 36.7C37.02 36.7 37.16 36.74 37.34 36.82L37.09 37.36C36.99 37.29 36.88 37.25 36.75 37.25C36.55 37.25 36.33 37.36 36.12 37.59C35.91 37.82 35.73 38.22 35.6 38.81L35.31 40.17H34.75Z" fill="#919191"/>
<path d="M37.82 38.17H39.77V38.04C39.77 37.75 39.69 37.53 39.54 37.37C39.39 37.22 39.2 37.14 38.96 37.14C38.71 37.14 38.49 37.23 38.27 37.4C38.08 37.57 37.92 37.83 37.82 38.17ZM39.53 39.01L40.11 39.07C40.03 39.35 39.84 39.61 39.55 39.87C39.25 40.12 38.9 40.25 38.48 40.25C38.22 40.25 37.98 40.19 37.77 40.08C37.56 39.97 37.4 39.8 37.29 39.57C37.18 39.35 37.12 39.09 37.12 38.81C37.12 38.44 37.21 38.08 37.39 37.73C37.56 37.38 37.78 37.12 38.07 36.95C38.35 36.78 38.65 36.7 38.97 36.7C39.39 36.7 39.71 36.83 39.96 37.08C40.21 37.33 40.33 37.67 40.33 38.11C40.33 38.28 40.32 38.45 40.29 38.62H37.73C37.73 38.69 37.72 38.75 37.72 38.8C37.72 39.12 37.8 39.36 37.95 39.53C38.1 39.7 38.28 39.78 38.5 39.78C38.7 39.78 38.89 39.71 39.1 39.58C39.27 39.45 39.43 39.26 39.53 39.01Z" fill="#919191"/>
<path d="M43.27 38.45C43.19 38.48 43.1 38.51 43.01 38.52C42.91 38.54 42.75 38.55 42.54 38.57C42.19 38.6 41.94 38.64 41.81 38.68C41.66 38.73 41.56 38.8 41.48 38.9C41.41 39 41.38 39.11 41.38 39.23C41.38 39.39 41.44 39.52 41.55 39.63C41.66 39.74 41.83 39.79 42.03 39.79C42.23 39.79 42.41 39.74 42.61 39.64C42.79 39.54 42.93 39.4 43.04 39.22C43.13 39.04 43.21 38.78 43.27 38.45ZM43.05 39.75C42.85 39.92 42.64 40.05 42.46 40.13C42.27 40.21 42.06 40.25 41.85 40.25C41.52 40.25 41.26 40.16 41.07 39.97C40.87 39.78 40.78 39.55 40.78 39.26C40.78 39.07 40.83 38.9 40.9 38.76C40.99 38.61 41.11 38.5 41.26 38.41C41.41 38.32 41.58 38.26 41.79 38.22C41.93 38.19 42.17 38.17 42.55 38.16C42.92 38.15 43.19 38.11 43.35 38.05C43.4 37.89 43.42 37.76 43.42 37.66C43.42 37.53 43.37 37.42 43.27 37.34C43.13 37.23 42.93 37.18 42.67 37.18C42.42 37.18 42.22 37.23 42.06 37.34C41.89 37.45 41.78 37.6 41.71 37.8L41.11 37.75C41.23 37.41 41.43 37.15 41.68 36.98C41.95 36.8 42.29 36.71 42.68 36.71C43.11 36.71 43.46 36.81 43.71 37.01C43.9 37.16 43.99 37.35 43.99 37.59C43.99 37.77 43.97 37.98 43.91 38.22L43.72 39.06C43.66 39.33 43.63 39.55 43.63 39.71C43.63 39.82 43.65 39.97 43.7 40.17H43.1C43.09 40.06 43.06 39.92 43.05 39.75Z" fill="#919191"/>
<path d="M44.43 40.17L45.16 36.78H45.75L45.64 37.34C45.85 37.1 46.05 36.93 46.23 36.84C46.4 36.75 46.59 36.7 46.79 36.7C47 36.7 47.18 36.76 47.33 36.87C47.48 36.98 47.57 37.14 47.61 37.34C47.79 37.13 47.97 36.97 48.17 36.86C48.36 36.76 48.56 36.7 48.78 36.7C49.07 36.7 49.29 36.77 49.43 36.9C49.58 37.03 49.66 37.22 49.66 37.47C49.66 37.57 49.63 37.75 49.58 37.99L49.11 40.18H48.52L49 37.93C49.05 37.75 49.07 37.62 49.07 37.54C49.07 37.43 49.04 37.34 48.96 37.28C48.89 37.21 48.79 37.18 48.66 37.18C48.49 37.18 48.31 37.23 48.12 37.34C47.94 37.44 47.79 37.58 47.7 37.75C47.6 37.92 47.51 38.18 47.43 38.53L47.08 40.17H46.48L46.98 37.88C47.01 37.72 47.02 37.61 47.02 37.55C47.02 37.44 46.99 37.35 46.92 37.28C46.85 37.21 46.75 37.18 46.64 37.18C46.47 37.18 46.3 37.23 46.12 37.34C45.93 37.45 45.78 37.59 45.67 37.78C45.56 37.97 45.46 38.23 45.39 38.58L45.04 40.18L44.43 40.17Z" fill="#919191"/>
<path d="M52.75 38.77V38.88C52.75 39.17 52.82 39.39 52.96 39.54C53.1 39.69 53.28 39.77 53.49 39.77C53.69 39.77 53.88 39.7 54.05 39.56C54.23 39.42 54.37 39.2 54.48 38.9C54.59 38.6 54.65 38.32 54.65 38.07C54.65 37.79 54.58 37.56 54.44 37.41C54.3 37.25 54.12 37.17 53.92 37.17C53.71 37.17 53.51 37.25 53.33 37.41C53.15 37.57 53 37.82 52.88 38.15C52.8 38.4 52.75 38.61 52.75 38.77ZM51.87 40.17L52.87 35.49H53.47L53.11 37.16C53.3 36.99 53.47 36.87 53.62 36.8C53.78 36.73 53.94 36.7 54.11 36.7C54.43 36.7 54.7 36.82 54.92 37.06C55.13 37.3 55.25 37.64 55.25 38.09C55.25 38.39 55.21 38.67 55.11 38.91C55.02 39.16 54.92 39.37 54.78 39.54C54.66 39.71 54.52 39.84 54.39 39.95C54.25 40.05 54.11 40.13 53.97 40.18C53.82 40.23 53.68 40.25 53.55 40.25C53.31 40.25 53.12 40.19 52.94 40.07C52.77 39.95 52.62 39.77 52.53 39.53L52.4 40.17H51.87Z" fill="#919191"/>
<path d="M56.43 38.17H58.38C58.39 38.11 58.39 38.07 58.39 38.04C58.39 37.75 58.31 37.53 58.16 37.37C58.01 37.22 57.82 37.14 57.59 37.14C57.34 37.14 57.11 37.23 56.9 37.4C56.69 37.57 56.53 37.83 56.43 38.17ZM58.16 39.01L58.74 39.07C58.66 39.35 58.47 39.61 58.16 39.87C57.87 40.12 57.52 40.25 57.1 40.25C56.84 40.25 56.6 40.19 56.39 40.08C56.18 39.97 56.02 39.8 55.9 39.57C55.79 39.35 55.73 39.09 55.73 38.81C55.73 38.44 55.82 38.08 55.99 37.73C56.17 37.38 56.4 37.12 56.68 36.95C56.95 36.78 57.25 36.7 57.58 36.7C58 36.7 58.33 36.83 58.57 37.08C58.82 37.33 58.94 37.67 58.94 38.11C58.94 38.28 58.92 38.45 58.9 38.62H56.34C56.33 38.69 56.33 38.75 56.33 38.8C56.33 39.12 56.4 39.36 56.56 39.53C56.71 39.7 56.89 39.78 57.1 39.78C57.3 39.78 57.51 39.71 57.7 39.58C57.9 39.45 58.04 39.26 58.16 39.01Z" fill="#919191"/>
<path d="M60.04 38.67C60.04 38.9 60.06 39.08 60.11 39.19C60.18 39.35 60.27 39.48 60.39 39.57C60.5 39.66 60.64 39.7 60.79 39.7C60.99 39.7 61.18 39.63 61.38 39.5C61.57 39.37 61.73 39.16 61.84 38.88C61.96 38.6 62.02 38.33 62.02 38.08C62.02 37.8 61.94 37.58 61.78 37.41C61.62 37.25 61.42 37.16 61.19 37.16C61.04 37.16 60.91 37.2 60.77 37.27C60.63 37.35 60.51 37.46 60.39 37.62C60.28 37.77 60.19 37.96 60.13 38.17C60.06 38.39 60.04 38.56 60.04 38.67ZM59.3 40.48L59.9 40.53C59.9 40.66 59.91 40.76 59.95 40.83C60 40.9 60.05 40.95 60.13 40.98C60.24 41.03 60.38 41.05 60.55 41.05C60.91 41.05 61.17 40.96 61.32 40.78C61.43 40.66 61.52 40.39 61.61 39.99L61.67 39.71C61.37 40.02 61.04 40.17 60.69 40.17C60.34 40.17 60.05 40.04 59.81 39.79C59.57 39.54 59.45 39.18 59.45 38.72C59.45 38.34 59.55 37.99 59.73 37.67C59.92 37.35 60.14 37.11 60.4 36.95C60.66 36.79 60.92 36.7 61.2 36.7C61.65 36.7 62 36.91 62.25 37.33L62.36 36.77H62.9L62.2 40.05C62.13 40.41 62.03 40.69 61.91 40.89C61.79 41.09 61.61 41.25 61.39 41.36C61.16 41.47 60.92 41.53 60.62 41.53C60.34 41.53 60.1 41.5 59.9 41.42C59.7 41.35 59.55 41.25 59.45 41.11C59.35 40.97 59.3 40.82 59.3 40.64C59.28 40.59 59.28 40.54 59.3 40.48Z" fill="#919191"/>
<path d="M63.9 36.14L64.04 35.49H64.64L64.49 36.14H63.9ZM63.03 40.17L63.76 36.78H64.35L63.63 40.17H63.03Z" fill="#919191"/>
<path d="M64.54 40.17L65.27 36.78H65.8L65.68 37.37C65.92 37.14 66.13 36.97 66.33 36.86C66.53 36.75 66.74 36.7 66.95 36.7C67.23 36.7 67.46 36.78 67.62 36.92C67.78 37.07 67.86 37.27 67.86 37.52C67.86 37.64 67.84 37.84 67.78 38.11L67.34 40.17H66.74L67.2 38.02C67.25 37.81 67.27 37.66 67.27 37.56C67.27 37.45 67.24 37.36 67.16 37.28C67.08 37.21 66.96 37.17 66.81 37.17C66.51 37.17 66.23 37.28 66 37.49C65.76 37.7 65.59 38.07 65.48 38.59L65.14 40.17H64.54Z" fill="#919191"/>
<path d="M68.33 39.01L68.92 38.98C68.92 39.15 68.94 39.29 69 39.4C69.06 39.52 69.15 39.61 69.29 39.69C69.43 39.77 69.59 39.8 69.78 39.8C70.04 39.8 70.24 39.75 70.37 39.65C70.51 39.55 70.57 39.43 70.57 39.29C70.57 39.19 70.53 39.09 70.45 39C70.37 38.91 70.18 38.8 69.86 38.67C69.54 38.54 69.35 38.45 69.26 38.39C69.11 38.3 69 38.2 68.93 38.08C68.85 37.96 68.82 37.83 68.82 37.67C68.82 37.4 68.92 37.17 69.15 36.98C69.36 36.79 69.67 36.69 70.06 36.69C70.5 36.69 70.83 36.79 71.05 36.99C71.28 37.19 71.4 37.45 71.41 37.77L70.82 37.81C70.82 37.6 70.74 37.44 70.61 37.33C70.46 37.21 70.27 37.15 70.01 37.15C69.81 37.15 69.65 37.2 69.54 37.29C69.43 37.38 69.37 37.48 69.37 37.59C69.37 37.7 69.41 37.79 69.52 37.87C69.59 37.93 69.76 38.01 70.03 38.13C70.48 38.32 70.76 38.47 70.89 38.58C71.07 38.76 71.17 38.97 71.17 39.22C71.17 39.39 71.11 39.55 71.01 39.71C70.9 39.87 70.74 40 70.53 40.1C70.3 40.2 70.06 40.25 69.76 40.25C69.35 40.25 69.02 40.15 68.73 39.96C68.44 39.76 68.31 39.45 68.33 39.01Z" fill="#919191"/>
<path d="M75.31 8.19C75.31 9.88 76.69 11.24 78.37 11.24C80.06 11.24 81.46 9.95 81.43 8.09C81.4 6.69 80.34 5.2 78.39 5.16C76.71 5.12 75.31 6.5 75.31 8.19ZM78.37 4.86C80.24 4.86 81.75 6.35 81.75 8.23C81.72 10.11 80.19 11.54 78.37 11.53C76.53 11.52 75.02 10.04 75.02 8.19C75.02 6.35 76.53 4.86 78.37 4.86Z" fill="#919191"/>
<path d="M78.61 8.12C78.38 8.1 78.14 8.16 77.88 8.11C77.88 7.84 77.91 7.57 77.88 7.3C77.85 7.11 77.93 7.04 78.11 7.06C78.27 7.07 78.45 7.06 78.6 7.09C78.86 7.13 79.02 7.27 79.04 7.49C79.07 7.77 78.96 7.96 78.7 8.07C78.69 8.08 78.63 8.1 78.61 8.12C78.61 8.16 78.64 8.2 78.64 8.24C78.63 8.19 78.61 8.15 78.61 8.12ZM77.78 7.98C77.81 8.03 77.81 8.1 77.88 8.1C77.8 8.11 77.8 8.04 77.78 7.98ZM77.7 8.98C77.73 8.98 77.73 8.98 77.73 8.99C77.73 8.98 77.73 8.98 77.7 8.98ZM77.62 8.13C77.62 8.12 77.62 8.11 77.65 8.11C77.62 8.11 77.62 8.12 77.62 8.13C77.62 8.15 77.62 8.16 77.59 8.17C77.62 8.16 77.62 8.14 77.62 8.13ZM77.78 7.97V7.98V7.97C77.78 7.96 77.78 7.96 77.75 7.96C77.78 7.96 77.78 7.96 77.78 7.97ZM79.18 9.1C79.08 8.85 78.92 8.63 78.76 8.42V8.38C78.89 8.32 79.05 8.31 79.12 8.14C79.15 8.16 79.17 8.16 79.2 8.14C79.46 7.9 79.46 7.31 79.23 7.06C79.2 7.03 79.15 7.01 79.13 7.04C79.18 6.95 79.1 6.94 79.03 6.93C78.95 6.87 78.85 6.85 78.74 6.83C78.4 6.75 78.06 6.8 77.7 6.78C77.57 6.77 77.52 6.82 77.52 6.97V8.24C77.55 8.23 77.57 8.22 77.6 8.2V8.18V8.2C77.57 8.22 77.55 8.23 77.52 8.24C77.52 8.49 77.52 8.73 77.55 8.98C77.52 9.12 77.55 9.25 77.52 9.38C77.52 9.52 77.52 9.61 77.73 9.61C77.91 9.61 77.89 9.5 77.89 9.38C77.89 9.29 77.89 9.2 77.86 9.11C77.91 9.02 77.89 8.93 77.89 8.84C77.92 8.69 77.84 8.53 77.94 8.39C78.02 8.4 78.07 8.42 78.12 8.41C78.33 8.37 78.46 8.47 78.56 8.65C78.66 8.9 78.85 9.13 78.95 9.39C79.08 9.64 79.24 9.62 79.5 9.58C79.36 9.4 79.26 9.25 79.18 9.1Z" fill="#919191"/>
</svg>
